<?xml version="1.0" encoding="UTF-8" standalone="no"?>
<!-- Created with Inkscape (http://www.inkscape.org/) -->

<svg
   xmlns:dc="http://purl.org/dc/elements/1.1/"
   xmlns:cc="http://creativecommons.org/ns#"
   xmlns:rdf="http://www.w3.org/1999/02/22-rdf-syntax-ns#"
   xmlns:svg="http://www.w3.org/2000/svg"
   xmlns="http://www.w3.org/2000/svg"
   xmlns:sodipodi="http://sodipodi.sourceforge.net/DTD/sodipodi-0.dtd"
   xmlns:inkscape="http://www.inkscape.org/namespaces/inkscape"
   width="79.563095mm"
   height="88.368111mm"
   viewBox="0 0 281.91647 313.11535"
   id="svg2"
   version="1.1"
   inkscape:version="0.91 r13725"
   sodipodi:docname="logo_sm.svg">
  <defs
     id="defs4" />
  <sodipodi:namedview
     id="base"
     pagecolor="#ffffff"
     bordercolor="#666666"
     borderopacity="1.0"
     inkscape:pageopacity="0.0"
     inkscape:pageshadow="2"
     inkscape:zoom="0.98994949"
     inkscape:cx="-48.128395"
     inkscape:cy="216.96171"
     inkscape:document-units="px"
     inkscape:current-layer="layer1"
     showgrid="false"
     inkscape:window-width="2560"
     inkscape:window-height="1017"
     inkscape:window-x="-8"
     inkscape:window-y="-8"
     inkscape:window-maximized="1"
     fit-margin-top="0"
     fit-margin-left="0"
     fit-margin-right="0"
     fit-margin-bottom="0" />
  <metadata
     id="metadata7">
    <rdf:RDF>
      <cc:Work
         rdf:about="">
        <dc:format>image/svg+xml</dc:format>
        <dc:type
           rdf:resource="http://purl.org/dc/dcmitype/StillImage" />
        <dc:title></dc:title>
      </cc:Work>
    </rdf:RDF>
  </metadata>
  <g
     inkscape:label="Layer 1"
     inkscape:groupmode="layer"
     id="layer1"
     transform="translate(-235.90267,-310.37689)">
    <path
       style="fill:none;fill-rule:evenodd;stroke:#278127;stroke-width:15;stroke-linecap:round;stroke-linejoin:miter;stroke-miterlimit:4;stroke-dasharray:none;stroke-opacity:1"
       d="m 422.24377,486.67678 c -26.26398,-28.28426 -27.8665,-67.75869 -57.5787,-74.75129 -10.02762,-2.35994 -25.0091,1.85521 -23.2335,27.27412 2.19232,31.38455 15.21649,65.38744 45.45686,96.97464 23.67947,24.7341 54.54823,56.56855 111.11678,53.53809"
       id="path3336"
       inkscape:connector-curvature="0"
       sodipodi:nodetypes="csssc" />
    <path
       style="fill:none;fill-rule:evenodd;stroke:#278127;stroke-width:15;stroke-linecap:round;stroke-linejoin:miter;stroke-miterlimit:4;stroke-dasharray:none;stroke-opacity:1"
       d="m 367.69553,447.28083 c 22.22335,49.49748 30.30458,61.6193 51.51778,68.69036 19.4044,6.46813 42.25602,-18.54988 27.27412,-39.39594 -27.17599,-37.81312 -38.38581,-63.63962 -55.5584,-79.80204 -20.90949,-19.67951 -47.78944,-20.47208 -68.69037,3.03045 -13.30495,14.96106 -30.56802,46.29084 -42.4264,96.97465"
       id="path3338"
       inkscape:connector-curvature="0"
       sodipodi:nodetypes="cssssc" />
    <path
       style="opacity:0.97000002;fill:none;fill-rule:evenodd;stroke:#278127;stroke-width:15;stroke-linecap:round;stroke-linejoin:miter;stroke-miterlimit:4;stroke-dasharray:none;stroke-opacity:1"
       d="m 318.21836,459.38236 c 0,37.37563 28.28427,83.84266 48.48732,103.03556 20.20305,19.19289 54.54824,42.42641 85.86297,53.53809"
       id="path3342"
       inkscape:connector-curvature="0"
       sodipodi:nodetypes="csc" />
    <path
       style="fill:none;fill-rule:evenodd;stroke:#278127;stroke-width:15;stroke-linecap:round;stroke-linejoin:miter;stroke-miterlimit:4;stroke-dasharray:none;stroke-opacity:1"
       d="m 304.05592,516.98135 c 6.06091,52.52793 60.60914,84.85282 80.8122,97.9848"
       id="path3344"
       inkscape:connector-curvature="0"
       sodipodi:nodetypes="cc" />
    <path
       style="fill:none;fill-rule:evenodd;stroke:#278127;stroke-width:15;stroke-linecap:round;stroke-linejoin:miter;stroke-miterlimit:4;stroke-dasharray:none;stroke-opacity:1"
       d="m 428.30468,542.23516 c 31.31472,1.01015 56.91157,-20.48574 51.51777,-55.55838 -2.49516,-16.22452 -12.7167,-28.58281 -25.63649,-48.59841 -13.22466,-20.48791 -23.26374,-45.63066 -50.12495,-72.6199 -18.51614,-18.60439 -62.38671,-19.44124 -87.88326,-3.03045 -25.62025,16.4904 -45.82983,51.73928 -57.76891,101.95733"
       id="path3346"
       inkscape:connector-curvature="0"
       sodipodi:nodetypes="cssssc" />
    <path
       style="fill:none;fill-rule:evenodd;stroke:#278127;stroke-width:15;stroke-linecap:round;stroke-linejoin:miter;stroke-miterlimit:4;stroke-dasharray:none;stroke-opacity:1"
       d="m 458.60926,562.43821 c 33.33503,-5.05075 57.5787,-37.37563 50.50763,-77.78174 -7.07107,-40.4061 -28.67715,-52.37369 -47.47717,-90.91373 -20.20306,-41.41626 -57.60496,-78.06289 -104.04572,-75.76144 -43.37449,2.1495 -85.00385,24.83602 -114.14724,89.90359"
       id="path3348"
       inkscape:connector-curvature="0"
       sodipodi:nodetypes="csssc" />
  </g>
</svg>
